<?xml version="1.0" encoding="utf-8"?>
<!-- Generator: Adobe Illustrator 22.1.0, SVG Export Plug-In . SVG Version: 6.00 Build 0)  -->
<svg version="1.1" id="Réteg_1" xmlns="http://www.w3.org/2000/svg" xmlns:xlink="http://www.w3.org/1999/xlink" x="0px" y="0px"
	 viewBox="0 0 159.6 77.6" style="enable-background:new 0 0 159.6 77.6;" xml:space="preserve">
<style type="text/css">
	.st0{fill:#121C1C;}
</style>
<g>
	<path class="st0" d="M18.8,0.8C23.5,0.8,29,2.6,29,8.9c0,3.1-1.7,5.9-5,7.3c4,0.9,5.9,3.8,5.9,7.3c0,4.3-2.1,9.1-10.3,9.1H0V0.8
		H18.8z M10,25.7h6.4c1.9,0,3.3-1.2,3.3-3.1c0-2.2-1.7-3.1-3.6-3.1H10V25.7z M10,12.9h5.5c1.6,0,3.3-0.4,3.3-2.7
		c0-1.9-1.4-2.7-2.9-2.7H10V12.9z"/>
	<path class="st0" d="M48.2,32.6v-1.8c-2.1,1.3-3.6,2.3-7.7,2.3c-4.7,0-8.4-2.7-8.4-7.5c0-1.3,0.3-4,3.2-6c3.2-2.2,8.5-1.6,12.5-3
		c-0.1-1.7-0.5-2.7-3.1-2.7c-2.2,0-2.8,0.7-3,2.2c0,0-7.5,0.2-8.7,0.2c0.7-3.1,1.7-7.8,12.6-7.8c5.5,0,11.1,1.2,11.1,8v13.2
		c0,1.7,0.2,2.1,0.8,2.9H48.2z M47.7,21.7c-2,0.9-7,1.2-7,3.6c0,0.7,0.6,1.8,2.3,1.8c2.3,0,4.7-1.9,4.7-4.5V21.7z"/>
	<path class="st0" d="M60.6,32.6V0.8h9.3v31.8H60.6z"/>
	<path class="st0" d="M89,32.6v-1.8c-2.1,1.3-3.6,2.3-7.7,2.3c-4.7,0-8.4-2.7-8.4-7.5c0-1.3,0.3-4,3.2-6c3.2-2.2,8.5-1.6,12.5-3
		c-0.1-1.7-0.5-2.7-3.1-2.7c-2.2,0-2.8,0.7-3,2.2c0,0-7.5,0.2-8.7,0.2c0.7-3.1,1.7-7.8,12.6-7.8c5.5,0,11.1,1.2,11.1,8v13.2
		c0,1.7,0.2,2.1,0.8,2.9H89z M88.5,21.7c-2,0.9-7,1.2-7,3.6c0,0.7,0.6,1.8,2.3,1.8c2.3,0,4.7-1.9,4.7-4.5V21.7z M87.8,6.2H82L85.5,0
		H95L87.8,6.2z"/>
	<path class="st0" d="M113.5,25.6h10.8v7h-23.4v-5.1L112,16.2h-9.7V9.3h22v5.3L113.5,25.6z"/>
	<path class="st0" d="M143.5,16.2c-0.9-0.5-3.1-2.2-6-2.2c-0.9,0-2,0.3-2,1.2c0,0.9,0.5,1.1,3.7,1.8l3.3,0.8c4.2,0.9,6.6,3.4,6.6,7
		c0,5.2-4.6,8.7-11.1,8.7c-4.8,0-9-1.7-12.5-4.7l5.2-4.7c1.3,1.4,4,3.2,7.2,3.2c1.2,0,2.4-0.4,2.4-1.5c0-0.8-0.6-1.1-2.3-1.4
		c-7.1-1.3-11.3-2.7-11.3-8c0-3.9,3.2-8,10.6-8c3.7,0,8.2,0.9,11.1,3.4L143.5,16.2z"/>
	<path class="st0" d="M18.3,52.6v23.9h-10V52.6H0.2v-7.8h26.2v7.8H18.3z"/>
	<path class="st0" d="M38.9,44.8v20.1c0,3.1,1.6,4.7,4.4,4.7c2.9,0,4.4-1.7,4.4-5V44.8h10.1v19c0,9.1-6.5,13.6-14.6,13.6
		c-7.6,0-14.4-3.5-14.4-12.7V44.8H38.9z"/>
	<path class="st0" d="M78.6,44.8c5.4,0,11.3,2.1,11.3,10.2c0,4.1-1.8,7-6.5,8.8l7.8,12.8H79.9l-6.2-11.2h-2.9v11.2H60.7V44.8H78.6z
		 M75,58.8c2.1,0,4.9-0.3,4.9-3.7c0-3.5-2.9-3.7-4.9-3.7h-4.1v7.4H75z"/>
	<path class="st0" d="M109.1,77.6c-10.2,0-16.9-6.4-16.9-16.9c0-8.4,5-17.1,17.1-17.1c11.6,0,17,8.1,17,16.8
		C126.3,69,120.9,77.6,109.1,77.6z M109.3,69.6c3.3,0,6.9-2.2,6.9-9.4c0-6.3-3.5-8.5-6.9-8.5c-4.2,0-7,3.2-7,9.1
		C102.2,66.4,104.7,69.6,109.3,69.6z M111.1,42.7h-5.9l2.9-5.4h9.8L111.1,42.7z"/>
	<path class="st0" d="M153.1,54.7c-1.7-2.6-5.6-3.2-8.3-3.2c-0.8,0-3.6,0.1-3.6,2.1c0,1.5,1.5,2,5.6,2.7c5.4,0.9,12.9,2.3,12.9,9.8
		c0,8.2-7.2,11.6-14.7,11.6c-6.7,0-12.7-1.8-16.5-7l7.7-5c1.5,3.1,5.7,4.2,8.9,4.2c3,0,4.8-0.9,4.8-2.4c0-1.8-2-2.2-7.7-3.2
		c-6.7-1.2-10.9-4-10.9-9.6c0-8.5,8.1-10.8,13.9-10.8c5.7,0,11.2,1.7,14.4,5.6L153.1,54.7z"/>
</g>
</svg>
